<svg width="193" height="132" viewBox="0 0 193 132" fill="none" xmlns="http://www.w3.org/2000/svg">
<path d="M11.6543 106.898C11.1621 106.816 10.6289 106.775 10.0547 106.775C7.92188 106.775 6.47461 107.684 5.71289 109.5V123H2.46094V103.98H5.625L5.67773 106.178C6.74414 104.479 8.25586 103.629 10.2129 103.629C10.8457 103.629 11.3262 103.711 11.6543 103.875V106.898ZM17.7363 103.98L17.8418 106.371C19.2949 104.543 21.1934 103.629 23.5371 103.629C27.5566 103.629 29.584 105.896 29.6191 110.432V123H26.3672V110.414C26.3555 109.043 26.0391 108.029 25.418 107.373C24.8086 106.717 23.8535 106.389 22.5527 106.389C21.498 106.389 20.5723 106.67 19.7754 107.232C18.9785 107.795 18.3574 108.533 17.9121 109.447V123H14.6602V103.98H17.7363ZM41.9238 119.256C42.8613 119.256 43.623 118.998 44.209 118.482C44.7949 117.967 45.0996 117.281 45.123 116.426H49.8867C49.875 117.715 49.5234 118.898 48.832 119.977C48.1406 121.043 47.1914 121.875 45.9844 122.473C44.7891 123.059 43.4648 123.352 42.0117 123.352C39.293 123.352 37.1484 122.49 35.5781 120.768C34.0078 119.033 33.2227 116.643 33.2227 113.596V113.262C33.2227 110.332 34.002 107.994 35.5605 106.248C37.1191 104.502 39.2578 103.629 41.9766 103.629C44.3555 103.629 46.2598 104.309 47.6895 105.668C49.1309 107.016 49.8633 108.814 49.8867 111.064H45.123C45.0996 110.08 44.7949 109.283 44.209 108.674C43.623 108.053 42.8496 107.742 41.8887 107.742C40.7051 107.742 39.8086 108.176 39.1992 109.043C38.6016 109.898 38.3027 111.293 38.3027 113.227V113.754C38.3027 115.711 38.6016 117.117 39.1992 117.973C39.7969 118.828 40.7051 119.256 41.9238 119.256ZM63.8086 123C63.5742 122.543 63.4043 121.975 63.2988 121.295C62.0684 122.666 60.4688 123.352 58.5 123.352C56.6367 123.352 55.0898 122.812 53.8594 121.734C52.6406 120.656 52.0312 119.297 52.0312 117.656C52.0312 115.641 52.7754 114.094 54.2637 113.016C55.7637 111.938 57.9258 111.393 60.75 111.381H63.0879V110.291C63.0879 109.412 62.8594 108.709 62.4023 108.182C61.957 107.654 61.248 107.391 60.2754 107.391C59.4199 107.391 58.7461 107.596 58.2539 108.006C57.7734 108.416 57.5332 108.979 57.5332 109.693H52.4531C52.4531 108.592 52.793 107.572 53.4727 106.635C54.1523 105.697 55.1133 104.965 56.3555 104.438C57.5977 103.898 58.9922 103.629 60.5391 103.629C62.8828 103.629 64.7402 104.221 66.1113 105.404C67.4941 106.576 68.1855 108.229 68.1855 110.361V118.605C68.1973 120.41 68.4492 121.775 68.9414 122.701V123H63.8086ZM59.6074 119.467C60.3574 119.467 61.0488 119.303 61.6816 118.975C62.3145 118.635 62.7832 118.184 63.0879 117.621V114.352H61.1895C58.6465 114.352 57.293 115.23 57.1289 116.988L57.1113 117.287C57.1113 117.92 57.334 118.441 57.7793 118.852C58.2246 119.262 58.834 119.467 59.6074 119.467ZM77.4492 123H72.3516V96H77.4492V123ZM89.5605 119.256C90.498 119.256 91.2598 118.998 91.8457 118.482C92.4316 117.967 92.7363 117.281 92.7598 116.426H97.5234C97.5117 117.715 97.1602 118.898 96.4688 119.977C95.7773 121.043 94.8281 121.875 93.6211 122.473C92.4258 123.059 91.1016 123.352 89.6484 123.352C86.9297 123.352 84.7852 122.49 83.2148 120.768C81.6445 119.033 80.8594 116.643 80.8594 113.596V113.262C80.8594 110.332 81.6387 107.994 83.1973 106.248C84.7559 104.502 86.8945 103.629 89.6133 103.629C91.9922 103.629 93.8965 104.309 95.3262 105.668C96.7676 107.016 97.5 108.814 97.5234 111.064H92.7598C92.7363 110.08 92.4316 109.283 91.8457 108.674C91.2598 108.053 90.4863 107.742 89.5254 107.742C88.3418 107.742 87.4453 108.176 86.8359 109.043C86.2383 109.898 85.9395 111.293 85.9395 113.227V113.754C85.9395 115.711 86.2383 117.117 86.8359 117.973C87.4336 118.828 88.3418 119.256 89.5605 119.256ZM111.814 121.066C110.561 122.59 108.826 123.352 106.611 123.352C104.572 123.352 103.014 122.766 101.936 121.594C100.869 120.422 100.324 118.705 100.301 116.443V103.98H105.381V116.268C105.381 118.248 106.283 119.238 108.088 119.238C109.811 119.238 110.994 118.641 111.639 117.445V103.98H116.736V123H111.955L111.814 121.066ZM125.93 123H120.832V96H125.93V123ZM141.152 123C140.918 122.543 140.748 121.975 140.643 121.295C139.412 122.666 137.812 123.352 135.844 123.352C133.98 123.352 132.434 122.812 131.203 121.734C129.984 120.656 129.375 119.297 129.375 117.656C129.375 115.641 130.119 114.094 131.607 113.016C133.107 111.938 135.27 111.393 138.094 111.381H140.432V110.291C140.432 109.412 140.203 108.709 139.746 108.182C139.301 107.654 138.592 107.391 137.619 107.391C136.764 107.391 136.09 107.596 135.598 108.006C135.117 108.416 134.877 108.979 134.877 109.693H129.797C129.797 108.592 130.137 107.572 130.816 106.635C131.496 105.697 132.457 104.965 133.699 104.438C134.941 103.898 136.336 103.629 137.883 103.629C140.227 103.629 142.084 104.221 143.455 105.404C144.838 106.576 145.529 108.229 145.529 110.361V118.605C145.541 120.41 145.793 121.775 146.285 122.701V123H141.152ZM136.951 119.467C137.701 119.467 138.393 119.303 139.025 118.975C139.658 118.635 140.127 118.184 140.432 117.621V114.352H138.533C135.99 114.352 134.637 115.23 134.473 116.988L134.455 117.287C134.455 117.92 134.678 118.441 135.123 118.852C135.568 119.262 136.178 119.467 136.951 119.467ZM155.514 99.3047V103.98H158.766V107.707H155.514V117.199C155.514 117.902 155.648 118.406 155.918 118.711C156.188 119.016 156.703 119.168 157.465 119.168C158.027 119.168 158.525 119.127 158.959 119.045V122.895C157.963 123.199 156.938 123.352 155.883 123.352C152.32 123.352 150.504 121.553 150.434 117.955V107.707H147.656V103.98H150.434V99.3047H155.514ZM160.277 113.314C160.277 111.428 160.641 109.746 161.367 108.27C162.094 106.793 163.137 105.65 164.496 104.842C165.867 104.033 167.455 103.629 169.26 103.629C171.826 103.629 173.918 104.414 175.535 105.984C177.164 107.555 178.072 109.688 178.26 112.383L178.295 113.684C178.295 116.602 177.48 118.945 175.852 120.715C174.223 122.473 172.037 123.352 169.295 123.352C166.553 123.352 164.361 122.473 162.721 120.715C161.092 118.957 160.277 116.566 160.277 113.543V113.314ZM165.357 113.684C165.357 115.488 165.697 116.871 166.377 117.832C167.057 118.781 168.029 119.256 169.295 119.256C170.525 119.256 171.486 118.787 172.178 117.85C172.869 116.9 173.215 115.389 173.215 113.314C173.215 111.545 172.869 110.174 172.178 109.201C171.486 108.229 170.514 107.742 169.26 107.742C168.018 107.742 167.057 108.229 166.377 109.201C165.697 110.162 165.357 111.656 165.357 113.684ZM192.111 108.744C191.42 108.65 190.811 108.604 190.283 108.604C188.361 108.604 187.102 109.254 186.504 110.555V123H181.424V103.98H186.223L186.363 106.248C187.383 104.502 188.795 103.629 190.6 103.629C191.162 103.629 191.689 103.705 192.182 103.857L192.111 108.744Z" fill="#566573"/>
<path d="M68.5 0.5H123.5C127.224 0.5 130.5 3.77614 130.5 7.5V72.5C130.5 76.2239 127.224 79.5 123.5 79.5H68.5C64.7761 79.5 61.5 76.2239 61.5 72.5V7.5C61.5 3.77614 64.7761 0.5 68.5 0.5ZM79 70.5C79.6626 70.5 80.2834 70.1737 80.7286 69.7286C81.1737 69.2834 81.5 68.6626 81.5 68V62C81.5 61.3374 81.1737 60.7166 80.7286 60.2714C80.2834 59.8263 79.6626 59.5 79 59.5H73C72.3374 59.5 71.7166 59.8263 71.2714 60.2714C70.8263 60.7166 70.5 61.3374 70.5 62V68C70.5 68.6626 70.8263 69.2834 71.2714 69.7286C71.7166 70.1737 72.3374 70.5 73 70.5H79ZM79 50.5C79.6626 50.5 80.2834 50.1737 80.7286 49.7286C81.1737 49.2834 81.5 48.6626 81.5 48V42C81.5 41.3374 81.1737 40.7166 80.7286 40.2714C80.2834 39.8263 79.6626 39.5 79 39.5H73C72.3374 39.5 71.7166 39.8263 71.2714 40.2714C70.8263 40.7166 70.5 41.3374 70.5 42V48C70.5 48.6626 70.8263 49.2834 71.2714 49.7286C71.7166 50.1737 72.3374 50.5 73 50.5H79ZM99 70.5C99.6626 70.5 100.283 70.1737 100.729 69.7286C101.174 69.2834 101.5 68.6626 101.5 68V62C101.5 61.3374 101.174 60.7166 100.729 60.2714C100.283 59.8263 99.6626 59.5 99 59.5H93C92.3374 59.5 91.7166 59.8263 91.2714 60.2714C90.8263 60.7166 90.5 61.3374 90.5 62V68C90.5 68.6626 90.8263 69.2834 91.2714 69.7286C91.7166 70.1737 92.3374 70.5 93 70.5H99ZM99 50.5C99.6626 50.5 100.283 50.1737 100.729 49.7286C101.174 49.2834 101.5 48.6626 101.5 48V42C101.5 41.3374 101.174 40.7166 100.729 40.2714C100.283 39.8263 99.6626 39.5 99 39.5H93C92.3374 39.5 91.7166 39.8263 91.2714 40.2714C90.8263 40.7166 90.5 41.3374 90.5 42V48C90.5 48.6626 90.8263 49.2834 91.2714 49.7286C91.7166 50.1737 92.3374 50.5 93 50.5H99ZM119 70.5C119.663 70.5 120.283 70.1737 120.729 69.7286C121.174 69.2834 121.5 68.6626 121.5 68V42C121.5 41.3374 121.174 40.7166 120.729 40.2714C120.283 39.8263 119.663 39.5 119 39.5H113C112.337 39.5 111.717 39.8263 111.271 40.2714C110.826 40.7166 110.5 41.3374 110.5 42V68C110.5 68.6626 110.826 69.2834 111.271 69.7286C111.717 70.1737 112.337 70.5 113 70.5H119ZM119 30.5C119.663 30.5 120.283 30.1737 120.729 29.7286C121.174 29.2834 121.5 28.6626 121.5 28V12C121.5 11.3374 121.174 10.7166 120.729 10.2714C120.283 9.82627 119.663 9.5 119 9.5H73C72.3374 9.5 71.7166 9.82627 71.2714 10.2714C70.8263 10.7166 70.5 11.3374 70.5 12V28C70.5 28.6626 70.8263 29.2834 71.2714 29.7286C71.7166 30.1737 72.3374 30.5 73 30.5H119Z" fill="#FFC300" stroke="#FFC300"/>
</svg>
